<mxfile host="Electron" modified="2025-06-12T09:07:30.720Z" agent="Mozilla/5.0 (Windows NT 10.0; Win64; x64) AppleWebKit/537.36 (KHTML, like Gecko) draw.io/24.5.3 Chrome/124.0.6367.207 Electron/30.0.6 Safari/537.36" etag="mnbKw202RjdW0w-gIFeb" version="24.5.3" type="device">
  <diagram id="C5RBs43oDa-KdzZeNtuy" name="Page-1">
    <mxGraphModel dx="1143" dy="1378" grid="1" gridSize="10" guides="1" tooltips="1" connect="1" arrows="1" fold="1" page="1" pageScale="1" pageWidth="827" pageHeight="1169" math="0" shadow="0">
      <root>
        <mxCell id="WIyWlLk6GJQsqaUBKTNV-0" />
        <mxCell id="WIyWlLk6GJQsqaUBKTNV-1" parent="WIyWlLk6GJQsqaUBKTNV-0" />
        <mxCell id="XMgvpOPmqxMs5PxxD4ly-7" value="Forrás:&amp;nbsp;&lt;a href=&quot;https://confluence.mediso.com/pages/viewpage.action?pageId=334987753&quot;&gt;InterView WorkFlow Server Intended Use - InterView Products - Confluence&lt;/a&gt;&lt;div&gt;&lt;div&gt;UC3: SPECT/CT berenezésnél rutin ClariBasedAC&lt;/div&gt;&lt;/div&gt;" style="text;html=1;align=center;verticalAlign=middle;resizable=0;points=[];autosize=1;strokeColor=none;fillColor=none;" parent="WIyWlLk6GJQsqaUBKTNV-1" vertex="1">
          <mxGeometry x="125" y="13" width="470" height="40" as="geometry" />
        </mxCell>
        <mxCell id="XMgvpOPmqxMs5PxxD4ly-9" value="páciens1 befekszik a kamerába" style="rounded=1;whiteSpace=wrap;html=1;" parent="WIyWlLk6GJQsqaUBKTNV-1" vertex="1">
          <mxGeometry x="20" y="540" width="120" height="60" as="geometry" />
        </mxCell>
        <mxCell id="XMgvpOPmqxMs5PxxD4ly-10" value="" style="endArrow=none;html=1;rounded=0;entryX=1;entryY=0;entryDx=0;entryDy=0;" parent="WIyWlLk6GJQsqaUBKTNV-1" target="XMgvpOPmqxMs5PxxD4ly-9" edge="1">
          <mxGeometry width="50" height="50" relative="1" as="geometry">
            <mxPoint x="140" y="750" as="sourcePoint" />
            <mxPoint x="410" y="710" as="targetPoint" />
          </mxGeometry>
        </mxCell>
        <mxCell id="XMgvpOPmqxMs5PxxD4ly-11" value="&lt;div&gt;operátor elindítja a&amp;nbsp;SPECT&amp;nbsp; gyűjtést&amp;nbsp;&lt;/div&gt;" style="rounded=1;whiteSpace=wrap;html=1;" parent="WIyWlLk6GJQsqaUBKTNV-1" vertex="1">
          <mxGeometry x="140" y="600" width="230" height="100" as="geometry" />
        </mxCell>
        <mxCell id="XMgvpOPmqxMs5PxxD4ly-12" value="&lt;div&gt;operátor előkészíti a páciens2-t (adattok felvétele)&lt;/div&gt;" style="rounded=1;whiteSpace=wrap;html=1;" parent="WIyWlLk6GJQsqaUBKTNV-1" vertex="1">
          <mxGeometry x="190" y="720" width="120" height="60" as="geometry" />
        </mxCell>
        <mxCell id="XMgvpOPmqxMs5PxxD4ly-17" value="" style="endArrow=none;html=1;rounded=0;" parent="WIyWlLk6GJQsqaUBKTNV-1" edge="1">
          <mxGeometry width="50" height="50" relative="1" as="geometry">
            <mxPoint x="189" y="820" as="sourcePoint" />
            <mxPoint x="188.57" y="700" as="targetPoint" />
          </mxGeometry>
        </mxCell>
        <mxCell id="XMgvpOPmqxMs5PxxD4ly-18" value="A lépés lehet, hogy tovább tart" style="rounded=1;whiteSpace=wrap;html=1;dashed=1;dashPattern=12 12;" parent="WIyWlLk6GJQsqaUBKTNV-1" vertex="1">
          <mxGeometry x="135" y="200" width="120" height="60" as="geometry" />
        </mxCell>
        <mxCell id="XMgvpOPmqxMs5PxxD4ly-19" value="Kérdés" style="rhombus;whiteSpace=wrap;html=1;" parent="WIyWlLk6GJQsqaUBKTNV-1" vertex="1">
          <mxGeometry x="30" y="110" width="80" height="80" as="geometry" />
        </mxCell>
        <mxCell id="XMgvpOPmqxMs5PxxD4ly-20" value="Lépés" style="rounded=1;whiteSpace=wrap;html=1;" parent="WIyWlLk6GJQsqaUBKTNV-1" vertex="1">
          <mxGeometry x="20" y="200" width="120" height="60" as="geometry" />
        </mxCell>
        <mxCell id="XMgvpOPmqxMs5PxxD4ly-21" value="" style="endArrow=none;html=1;rounded=0;entryX=1;entryY=0;entryDx=0;entryDy=0;" parent="WIyWlLk6GJQsqaUBKTNV-1" target="XMgvpOPmqxMs5PxxD4ly-20" edge="1">
          <mxGeometry width="50" height="50" relative="1" as="geometry">
            <mxPoint x="140" y="380" as="sourcePoint" />
            <mxPoint x="140" y="310" as="targetPoint" />
          </mxGeometry>
        </mxCell>
        <mxCell id="XMgvpOPmqxMs5PxxD4ly-22" value="Ez jelöli, hogy ezen lépés&amp;nbsp;&lt;div&gt;vége triggereli a kövi lépést&lt;/div&gt;" style="edgeLabel;html=1;align=center;verticalAlign=middle;resizable=0;points=[];" parent="XMgvpOPmqxMs5PxxD4ly-21" vertex="1" connectable="0">
          <mxGeometry y="-3" relative="1" as="geometry">
            <mxPoint x="-3" y="20" as="offset" />
          </mxGeometry>
        </mxCell>
        <mxCell id="XMgvpOPmqxMs5PxxD4ly-23" value="" style="endArrow=none;html=1;rounded=0;dashed=1;dashPattern=12 12;" parent="WIyWlLk6GJQsqaUBKTNV-1" edge="1">
          <mxGeometry width="50" height="50" relative="1" as="geometry">
            <mxPoint x="260" y="500" as="sourcePoint" />
            <mxPoint x="255" y="200" as="targetPoint" />
          </mxGeometry>
        </mxCell>
        <mxCell id="XMgvpOPmqxMs5PxxD4ly-24" value="Ez jelöli, ugyanaz,&amp;nbsp;&lt;div&gt;mint a teli vonal,&amp;nbsp;&lt;div&gt;csak a szaggatott&amp;nbsp;&lt;/div&gt;&lt;div&gt;dobozokhoz tartozóan.&amp;nbsp;&lt;/div&gt;&lt;div&gt;&lt;br&gt;&lt;/div&gt;&lt;div&gt;A &quot;lehet, hogy tovább&amp;nbsp;&lt;/div&gt;&lt;div&gt;tart&quot; lépés vége,&amp;nbsp;&lt;/div&gt;&lt;div&gt;ami triggeli a kövi lépést&lt;/div&gt;&lt;/div&gt;" style="edgeLabel;html=1;align=center;verticalAlign=middle;resizable=0;points=[];" parent="XMgvpOPmqxMs5PxxD4ly-23" vertex="1" connectable="0">
          <mxGeometry y="-3" relative="1" as="geometry">
            <mxPoint x="-5" y="70" as="offset" />
          </mxGeometry>
        </mxCell>
        <mxCell id="IwbbAKYiuSTTEU75mQo1-29" style="edgeStyle=orthogonalEdgeStyle;rounded=0;orthogonalLoop=1;jettySize=auto;html=1;exitX=0;exitY=0.5;exitDx=0;exitDy=0;" edge="1" parent="WIyWlLk6GJQsqaUBKTNV-1" source="XMgvpOPmqxMs5PxxD4ly-29">
          <mxGeometry relative="1" as="geometry">
            <mxPoint x="369.9999999999999" y="1262.2857142857142" as="targetPoint" />
          </mxGeometry>
        </mxCell>
        <mxCell id="XMgvpOPmqxMs5PxxD4ly-29" value="Páciens1 távozik" style="rounded=1;whiteSpace=wrap;html=1;" parent="WIyWlLk6GJQsqaUBKTNV-1" vertex="1">
          <mxGeometry x="397" y="1232" width="260" height="60" as="geometry" />
        </mxCell>
        <mxCell id="XMgvpOPmqxMs5PxxD4ly-31" value="NonAC SPECT Rekon&amp;nbsp;" style="rounded=1;whiteSpace=wrap;html=1;" parent="WIyWlLk6GJQsqaUBKTNV-1" vertex="1">
          <mxGeometry x="610" y="1420" width="120" height="60" as="geometry" />
        </mxCell>
        <mxCell id="XMgvpOPmqxMs5PxxD4ly-32" value="" style="endArrow=none;html=1;rounded=0;entryX=1;entryY=0;entryDx=0;entryDy=0;" parent="WIyWlLk6GJQsqaUBKTNV-1" edge="1">
          <mxGeometry width="50" height="50" relative="1" as="geometry">
            <mxPoint x="909.13" y="2160" as="sourcePoint" />
            <mxPoint x="909.13" y="1916" as="targetPoint" />
          </mxGeometry>
        </mxCell>
        <mxCell id="XMgvpOPmqxMs5PxxD4ly-33" value="Rekon vége, operátor betölti a reknsturált képeket, fúzionálja, stb: Ideális esetben a távozás előtt legyenek meg a rekon felvételek (3 percen belül, akár MPH-ra is) ellenőrzés céljából" style="rounded=1;whiteSpace=wrap;html=1;" parent="WIyWlLk6GJQsqaUBKTNV-1" vertex="1">
          <mxGeometry x="909.13" y="2020" width="220" height="110" as="geometry" />
        </mxCell>
        <mxCell id="XMgvpOPmqxMs5PxxD4ly-34" value="" style="endArrow=none;html=1;rounded=0;entryX=1;entryY=0;entryDx=0;entryDy=0;" parent="WIyWlLk6GJQsqaUBKTNV-1" edge="1">
          <mxGeometry width="50" height="50" relative="1" as="geometry">
            <mxPoint x="1129.13" y="2290" as="sourcePoint" />
            <mxPoint x="1129.13" y="2070" as="targetPoint" />
          </mxGeometry>
        </mxCell>
        <mxCell id="XMgvpOPmqxMs5PxxD4ly-35" value="&lt;div&gt;Páciens 2 befekszik a kamerába&lt;/div&gt;" style="rounded=1;whiteSpace=wrap;html=1;" parent="WIyWlLk6GJQsqaUBKTNV-1" vertex="1">
          <mxGeometry x="1129.13" y="2170" width="120" height="60" as="geometry" />
        </mxCell>
        <mxCell id="XMgvpOPmqxMs5PxxD4ly-36" value="output: SPECT_RAW" style="text;html=1;align=center;verticalAlign=middle;resizable=0;points=[];autosize=1;strokeColor=none;fillColor=none;" parent="WIyWlLk6GJQsqaUBKTNV-1" vertex="1">
          <mxGeometry x="230" y="570" width="140" height="30" as="geometry" />
        </mxCell>
        <mxCell id="XMgvpOPmqxMs5PxxD4ly-37" value="&lt;div&gt;&lt;div&gt;input: SPECT_RAW&lt;/div&gt;&lt;div&gt;output: SPECT_RECON_NAC&lt;/div&gt;&lt;/div&gt;" style="text;html=1;align=center;verticalAlign=middle;resizable=0;points=[];autosize=1;strokeColor=none;fillColor=none;" parent="WIyWlLk6GJQsqaUBKTNV-1" vertex="1">
          <mxGeometry x="600" y="1520" width="190" height="40" as="geometry" />
        </mxCell>
        <mxCell id="XMgvpOPmqxMs5PxxD4ly-38" value="CT gyűjtés" style="rounded=1;whiteSpace=wrap;html=1;" parent="WIyWlLk6GJQsqaUBKTNV-1" vertex="1">
          <mxGeometry x="370" y="950" width="100" height="66" as="geometry" />
        </mxCell>
        <mxCell id="XMgvpOPmqxMs5PxxD4ly-39" value="&lt;div&gt;output: CT_RAW&lt;/div&gt;" style="text;html=1;align=center;verticalAlign=middle;resizable=0;points=[];autosize=1;strokeColor=none;fillColor=none;" parent="WIyWlLk6GJQsqaUBKTNV-1" vertex="1">
          <mxGeometry x="360" y="1020" width="110" height="30" as="geometry" />
        </mxCell>
        <mxCell id="XMgvpOPmqxMs5PxxD4ly-40" value="" style="endArrow=none;html=1;rounded=0;entryX=1;entryY=0;entryDx=0;entryDy=0;" parent="WIyWlLk6GJQsqaUBKTNV-1" edge="1">
          <mxGeometry width="50" height="50" relative="1" as="geometry">
            <mxPoint x="470" y="1370" as="sourcePoint" />
            <mxPoint x="470" y="1150" as="targetPoint" />
          </mxGeometry>
        </mxCell>
        <mxCell id="XMgvpOPmqxMs5PxxD4ly-41" value="CT rekon" style="rounded=1;whiteSpace=wrap;html=1;" parent="WIyWlLk6GJQsqaUBKTNV-1" vertex="1">
          <mxGeometry x="470" y="1300" width="140" height="66" as="geometry" />
        </mxCell>
        <mxCell id="XMgvpOPmqxMs5PxxD4ly-42" value="&lt;div&gt;input: CT_RAW&lt;/div&gt;&lt;div&gt;outut: CT_RECON&lt;/div&gt;" style="text;html=1;align=center;verticalAlign=middle;resizable=0;points=[];autosize=1;strokeColor=none;fillColor=none;" parent="WIyWlLk6GJQsqaUBKTNV-1" vertex="1">
          <mxGeometry x="470" y="1366" width="120" height="40" as="geometry" />
        </mxCell>
        <mxCell id="XMgvpOPmqxMs5PxxD4ly-43" value="" style="endArrow=none;html=1;rounded=0;entryX=1;entryY=0;entryDx=0;entryDy=0;" parent="WIyWlLk6GJQsqaUBKTNV-1" edge="1">
          <mxGeometry width="50" height="50" relative="1" as="geometry">
            <mxPoint x="730" y="2010" as="sourcePoint" />
            <mxPoint x="730" y="1840" as="targetPoint" />
          </mxGeometry>
        </mxCell>
        <mxCell id="XMgvpOPmqxMs5PxxD4ly-44" value="&lt;div&gt;Clari postfilter&lt;/div&gt;" style="rounded=1;whiteSpace=wrap;html=1;" parent="WIyWlLk6GJQsqaUBKTNV-1" vertex="1">
          <mxGeometry x="729.13" y="1910" width="180" height="60" as="geometry" />
        </mxCell>
        <mxCell id="XMgvpOPmqxMs5PxxD4ly-45" value="&lt;div&gt;Input: CT_RECON&lt;/div&gt;&lt;div&gt;Output: CT_RECON_POSTCLARI&lt;/div&gt;" style="text;html=1;align=center;verticalAlign=middle;resizable=0;points=[];autosize=1;strokeColor=none;fillColor=none;" parent="WIyWlLk6GJQsqaUBKTNV-1" vertex="1">
          <mxGeometry x="689.13" y="1980" width="210" height="40" as="geometry" />
        </mxCell>
        <mxCell id="XMgvpOPmqxMs5PxxD4ly-49" value="" style="endArrow=none;html=1;rounded=0;entryX=1;entryY=0;entryDx=0;entryDy=0;" parent="WIyWlLk6GJQsqaUBKTNV-1" edge="1">
          <mxGeometry width="50" height="50" relative="1" as="geometry">
            <mxPoint x="370" y="1996.6666666666667" as="sourcePoint" />
            <mxPoint x="369" y="600" as="targetPoint" />
          </mxGeometry>
        </mxCell>
        <mxCell id="XMgvpOPmqxMs5PxxD4ly-51" value="SyCT generálás" style="rounded=1;whiteSpace=wrap;html=1;" parent="WIyWlLk6GJQsqaUBKTNV-1" vertex="1">
          <mxGeometry x="370" y="760" width="120" height="60" as="geometry" />
        </mxCell>
        <mxCell id="XMgvpOPmqxMs5PxxD4ly-52" value="&lt;div&gt;input: SPECT_RAW&lt;/div&gt;&lt;div&gt;output: SPECT_RECON_NAC&lt;/div&gt;" style="text;html=1;align=center;verticalAlign=middle;resizable=0;points=[];autosize=1;strokeColor=none;fillColor=none;" parent="WIyWlLk6GJQsqaUBKTNV-1" vertex="1">
          <mxGeometry x="335" y="820" width="190" height="40" as="geometry" />
        </mxCell>
        <mxCell id="XMgvpOPmqxMs5PxxD4ly-54" value="AC SPECT Rekon&amp;nbsp;" style="rounded=1;whiteSpace=wrap;html=1;" parent="WIyWlLk6GJQsqaUBKTNV-1" vertex="1">
          <mxGeometry x="610" y="1590" width="120" height="60" as="geometry" />
        </mxCell>
        <mxCell id="XMgvpOPmqxMs5PxxD4ly-55" value="&lt;div&gt;&lt;div&gt;input: SPECT_RAW, SyCT&lt;/div&gt;&lt;div&gt;output: SPECT_RECON_SyCT_AC&lt;/div&gt;&lt;/div&gt;" style="text;html=1;align=center;verticalAlign=middle;resizable=0;points=[];autosize=1;strokeColor=none;fillColor=none;" parent="WIyWlLk6GJQsqaUBKTNV-1" vertex="1">
          <mxGeometry x="580" y="1650" width="210" height="40" as="geometry" />
        </mxCell>
        <mxCell id="XMgvpOPmqxMs5PxxD4ly-56" value="" style="endArrow=none;html=1;rounded=0;" parent="WIyWlLk6GJQsqaUBKTNV-1" edge="1">
          <mxGeometry width="50" height="50" relative="1" as="geometry">
            <mxPoint x="170" y="1740" as="sourcePoint" />
            <mxPoint x="165" y="700" as="targetPoint" />
          </mxGeometry>
        </mxCell>
        <mxCell id="IwbbAKYiuSTTEU75mQo1-0" value="Kvázi kötelező a CT gyűjtés lefuttatása, de technikailag nem lenne kötelező, elég lenne a syCT-ből kapott kép is" style="ellipse;whiteSpace=wrap;html=1;" vertex="1" parent="WIyWlLk6GJQsqaUBKTNV-1">
          <mxGeometry x="350" y="680" width="150" height="70" as="geometry" />
        </mxCell>
        <mxCell id="IwbbAKYiuSTTEU75mQo1-1" value="Ezek közül egyszerre csak az egyik futhat.&lt;div&gt;&lt;br&gt;&lt;div&gt;referencia siteokon lefutHAT mindkettő, de a CT vizsgálatért az OEP többet fizet, így a rendes CT prio-t élvez, vagy kizárólagos&amp;nbsp;&lt;/div&gt;&lt;/div&gt;" style="ellipse;whiteSpace=wrap;html=1;" vertex="1" parent="WIyWlLk6GJQsqaUBKTNV-1">
          <mxGeometry x="220" y="890" width="150" height="60" as="geometry" />
        </mxCell>
        <mxCell id="IwbbAKYiuSTTEU75mQo1-3" value="" style="edgeStyle=none;orthogonalLoop=1;jettySize=auto;html=1;rounded=0;exitX=0.5;exitY=0;exitDx=0;exitDy=0;entryX=0;entryY=0.5;entryDx=0;entryDy=0;" edge="1" parent="WIyWlLk6GJQsqaUBKTNV-1" source="IwbbAKYiuSTTEU75mQo1-1" target="XMgvpOPmqxMs5PxxD4ly-51">
          <mxGeometry width="100" relative="1" as="geometry">
            <mxPoint x="230" y="860" as="sourcePoint" />
            <mxPoint x="330" y="860" as="targetPoint" />
            <Array as="points" />
          </mxGeometry>
        </mxCell>
        <mxCell id="IwbbAKYiuSTTEU75mQo1-4" value="" style="edgeStyle=none;orthogonalLoop=1;jettySize=auto;html=1;rounded=0;exitX=0.5;exitY=1;exitDx=0;exitDy=0;" edge="1" parent="WIyWlLk6GJQsqaUBKTNV-1" source="IwbbAKYiuSTTEU75mQo1-1">
          <mxGeometry width="100" relative="1" as="geometry">
            <mxPoint x="220" y="1010" as="sourcePoint" />
            <mxPoint x="370" y="990" as="targetPoint" />
            <Array as="points" />
          </mxGeometry>
        </mxCell>
        <mxCell id="IwbbAKYiuSTTEU75mQo1-5" value="" style="endArrow=none;html=1;rounded=0;dashed=1;dashPattern=12 12;" edge="1" parent="WIyWlLk6GJQsqaUBKTNV-1">
          <mxGeometry width="50" height="50" relative="1" as="geometry">
            <mxPoint x="470" y="1150" as="sourcePoint" />
            <mxPoint x="470" y="950" as="targetPoint" />
          </mxGeometry>
        </mxCell>
        <mxCell id="IwbbAKYiuSTTEU75mQo1-7" value="SyCT generálás" style="rounded=1;whiteSpace=wrap;html=1;dashed=1;dashPattern=12 12;" vertex="1" parent="WIyWlLk6GJQsqaUBKTNV-1">
          <mxGeometry x="470" y="1050" width="170" height="60" as="geometry" />
        </mxCell>
        <mxCell id="IwbbAKYiuSTTEU75mQo1-8" value="Ez akkor érvényes, ha mindkettőt lefuttatják.&lt;div&gt;A két lépés nem futhat egyszerre, csak egymás után&lt;/div&gt;" style="ellipse;whiteSpace=wrap;html=1;" vertex="1" parent="WIyWlLk6GJQsqaUBKTNV-1">
          <mxGeometry x="470" y="980" width="150" height="70" as="geometry" />
        </mxCell>
        <mxCell id="IwbbAKYiuSTTEU75mQo1-9" value="" style="endArrow=none;html=1;rounded=0;entryX=1;entryY=0;entryDx=0;entryDy=0;dashed=1;dashPattern=12 12;" edge="1" parent="WIyWlLk6GJQsqaUBKTNV-1">
          <mxGeometry width="50" height="50" relative="1" as="geometry">
            <mxPoint x="640" y="1280" as="sourcePoint" />
            <mxPoint x="640" y="1060" as="targetPoint" />
          </mxGeometry>
        </mxCell>
        <mxCell id="IwbbAKYiuSTTEU75mQo1-10" value="CT rekon" style="rounded=1;whiteSpace=wrap;html=1;dashed=1;dashPattern=12 12;" vertex="1" parent="WIyWlLk6GJQsqaUBKTNV-1">
          <mxGeometry x="640" y="1126" width="140" height="66" as="geometry" />
        </mxCell>
        <mxCell id="IwbbAKYiuSTTEU75mQo1-11" value="&lt;div&gt;input: CT_RAW&lt;/div&gt;&lt;div&gt;outut: CT_RECON&lt;/div&gt;" style="text;html=1;align=center;verticalAlign=middle;resizable=0;points=[];autosize=1;strokeColor=none;fillColor=none;" vertex="1" parent="WIyWlLk6GJQsqaUBKTNV-1">
          <mxGeometry x="640" y="1192" width="120" height="40" as="geometry" />
        </mxCell>
        <mxCell id="IwbbAKYiuSTTEU75mQo1-12" value="Ebben a szaggatott vonalas esetben a SyCT után indul a CT rekon" style="ellipse;whiteSpace=wrap;html=1;" vertex="1" parent="WIyWlLk6GJQsqaUBKTNV-1">
          <mxGeometry x="640" y="1045" width="150" height="70" as="geometry" />
        </mxCell>
        <mxCell id="IwbbAKYiuSTTEU75mQo1-13" value="" style="endArrow=none;html=1;rounded=0;entryX=1;entryY=0;entryDx=0;entryDy=0;" edge="1" parent="WIyWlLk6GJQsqaUBKTNV-1">
          <mxGeometry width="50" height="50" relative="1" as="geometry">
            <mxPoint x="610" y="1760" as="sourcePoint" />
            <mxPoint x="610" y="1300" as="targetPoint" />
          </mxGeometry>
        </mxCell>
        <mxCell id="IwbbAKYiuSTTEU75mQo1-15" style="edgeStyle=orthogonalEdgeStyle;rounded=0;orthogonalLoop=1;jettySize=auto;html=1;" edge="1" parent="WIyWlLk6GJQsqaUBKTNV-1" source="IwbbAKYiuSTTEU75mQo1-14">
          <mxGeometry relative="1" as="geometry">
            <mxPoint x="610" y="1450" as="targetPoint" />
            <Array as="points">
              <mxPoint x="530" y="1450" />
            </Array>
          </mxGeometry>
        </mxCell>
        <mxCell id="IwbbAKYiuSTTEU75mQo1-16" style="edgeStyle=orthogonalEdgeStyle;rounded=0;orthogonalLoop=1;jettySize=auto;html=1;" edge="1" parent="WIyWlLk6GJQsqaUBKTNV-1" source="IwbbAKYiuSTTEU75mQo1-14">
          <mxGeometry relative="1" as="geometry">
            <mxPoint x="610" y="1630" as="targetPoint" />
            <Array as="points">
              <mxPoint x="530" y="1630" />
            </Array>
          </mxGeometry>
        </mxCell>
        <mxCell id="IwbbAKYiuSTTEU75mQo1-14" value="Ezek közül egyszerre csak az egyik futhat." style="ellipse;whiteSpace=wrap;html=1;" vertex="1" parent="WIyWlLk6GJQsqaUBKTNV-1">
          <mxGeometry x="455" y="1510" width="150" height="70" as="geometry" />
        </mxCell>
        <mxCell id="IwbbAKYiuSTTEU75mQo1-17" value="AC SPECT Rekon&amp;nbsp;" style="rounded=1;whiteSpace=wrap;html=1;dashed=1;dashPattern=12 12;" vertex="1" parent="WIyWlLk6GJQsqaUBKTNV-1">
          <mxGeometry x="730" y="1753" width="120" height="60" as="geometry" />
        </mxCell>
        <mxCell id="IwbbAKYiuSTTEU75mQo1-18" value="&lt;div&gt;&lt;div&gt;input: SPECT_RAW, SyCT&lt;/div&gt;&lt;div&gt;output: SPECT_RECON_SyCT_AC&lt;/div&gt;&lt;/div&gt;" style="text;html=1;align=center;verticalAlign=middle;resizable=0;points=[];autosize=1;strokeColor=none;fillColor=none;" vertex="1" parent="WIyWlLk6GJQsqaUBKTNV-1">
          <mxGeometry x="700" y="1813" width="210" height="40" as="geometry" />
        </mxCell>
        <mxCell id="IwbbAKYiuSTTEU75mQo1-19" value="" style="endArrow=none;html=1;rounded=0;entryX=1;entryY=0;entryDx=0;entryDy=0;dashed=1;dashPattern=12 12;" edge="1" parent="WIyWlLk6GJQsqaUBKTNV-1">
          <mxGeometry width="50" height="50" relative="1" as="geometry">
            <mxPoint x="730" y="1860" as="sourcePoint" />
            <mxPoint x="730" y="1410" as="targetPoint" />
          </mxGeometry>
        </mxCell>
        <mxCell id="IwbbAKYiuSTTEU75mQo1-20" value="Előfordulhat olyan scenario is, hogy a SPECT rekon(ok) futnak előbb és utána végül a CT rekon.&lt;div&gt;&lt;br&gt;&lt;/div&gt;&lt;div&gt;EZ A LEGVALÓSZíNŰBB SCENARIO, ENNEK KELL A NEM SZAGGATOTT VONALASNAK LENIE&lt;/div&gt;" style="ellipse;whiteSpace=wrap;html=1;" vertex="1" parent="WIyWlLk6GJQsqaUBKTNV-1">
          <mxGeometry x="320" y="1900" width="150" height="70" as="geometry" />
        </mxCell>
        <mxCell id="IwbbAKYiuSTTEU75mQo1-21" value="" style="endArrow=none;html=1;rounded=0;entryX=1;entryY=0;entryDx=0;entryDy=0;dashed=1;dashPattern=12 12;" edge="1" parent="WIyWlLk6GJQsqaUBKTNV-1">
          <mxGeometry width="50" height="50" relative="1" as="geometry">
            <mxPoint x="470" y="2050" as="sourcePoint" />
            <mxPoint x="469.13" y="1370" as="targetPoint" />
          </mxGeometry>
        </mxCell>
        <mxCell id="IwbbAKYiuSTTEU75mQo1-22" value="NonAC SPECT Rekon&amp;nbsp;" style="rounded=1;whiteSpace=wrap;html=1;dashed=1;dashPattern=12 12;" vertex="1" parent="WIyWlLk6GJQsqaUBKTNV-1">
          <mxGeometry x="470" y="1860" width="120" height="60" as="geometry" />
        </mxCell>
        <mxCell id="IwbbAKYiuSTTEU75mQo1-23" value="AC SPECT Rekon&amp;nbsp;" style="rounded=1;whiteSpace=wrap;html=1;dashed=1;dashPattern=12 12;" vertex="1" parent="WIyWlLk6GJQsqaUBKTNV-1">
          <mxGeometry x="470" y="2030" width="120" height="60" as="geometry" />
        </mxCell>
        <mxCell id="IwbbAKYiuSTTEU75mQo1-24" value="" style="endArrow=none;html=1;rounded=0;entryX=1;entryY=0;entryDx=0;entryDy=0;dashed=1;dashPattern=12 12;" edge="1" parent="WIyWlLk6GJQsqaUBKTNV-1">
          <mxGeometry width="50" height="50" relative="1" as="geometry">
            <mxPoint x="590" y="2230" as="sourcePoint" />
            <mxPoint x="589.13" y="1850" as="targetPoint" />
          </mxGeometry>
        </mxCell>
        <mxCell id="IwbbAKYiuSTTEU75mQo1-25" value="CT rekon" style="rounded=1;whiteSpace=wrap;html=1;dashed=1;dashPattern=12 12;" vertex="1" parent="WIyWlLk6GJQsqaUBKTNV-1">
          <mxGeometry x="590" y="2130" width="140" height="66" as="geometry" />
        </mxCell>
        <mxCell id="IwbbAKYiuSTTEU75mQo1-27" value="A páciens távozása úgy történjen, hogy a rekonokból már legyen kép, hogy ne kelljen vissza hívni a pácienst" style="ellipse;whiteSpace=wrap;html=1;" vertex="1" parent="WIyWlLk6GJQsqaUBKTNV-1">
          <mxGeometry x="657" y="1250" width="170" height="80" as="geometry" />
        </mxCell>
        <mxCell id="IwbbAKYiuSTTEU75mQo1-28" value="Itt nem feltétlenül azt kell gondolni, hogy egyből leveszik az asztalról a pácienst, mert ha valami gond volt gyűjtés közben, akkor maradjon meg a fekvés, pozíció, stb" style="ellipse;whiteSpace=wrap;html=1;" vertex="1" parent="WIyWlLk6GJQsqaUBKTNV-1">
          <mxGeometry x="257" y="1326" width="140" height="80" as="geometry" />
        </mxCell>
      </root>
    </mxGraphModel>
  </diagram>
</mxfile>
